<mxfile host="app.diagrams.net" modified="2022-12-21T05:50:19.202Z" agent="5.0 (Macintosh; Intel Mac OS X 10_15_7) AppleWebKit/537.36 (KHTML, like Gecko) Chrome/108.0.0.0 Safari/537.36" etag="yb0o4wWTsW-jW61uG0QR" version="16.6.4" type="github">
  <diagram id="8ifsB2dzL1DityUfBtE1" name="Page-1">
    <mxGraphModel dx="774" dy="445" grid="1" gridSize="10" guides="1" tooltips="1" connect="1" arrows="1" fold="1" page="1" pageScale="1" pageWidth="827" pageHeight="1169" math="0" shadow="0">
      <root>
        <mxCell id="0" />
        <mxCell id="1" parent="0" />
        <mxCell id="J-rjzYQYOMDTb7YkQDOV-1" value="日常迭代" style="rounded=1;whiteSpace=wrap;html=1;" vertex="1" parent="1">
          <mxGeometry x="180" y="210" width="90" height="40" as="geometry" />
        </mxCell>
      </root>
    </mxGraphModel>
  </diagram>
</mxfile>
